<svg xmlns="http://www.w3.org/2000/svg" version="1.1" xmlns:xlink="http://www.w3.org/1999/xlink" viewBox="0 0 200 200"><rect width="200" height="200" fill="url('#gradient')"></rect><defs><linearGradient id="gradient" gradientTransform="rotate(0 0.5 0.5)"><stop offset="0%" stop-color="#fd3c39"></stop><stop offset="100%" stop-color="#fd3c39"></stop></linearGradient></defs><g><g fill="#ffffff" transform="matrix(4.722072538860104,0,0,4.722072538860104,5.9344384108182595,133.57819406074563)" stroke="#ffffff" stroke-width="0"><path d="M8.87 0L6.36-5.02L4.50-5.02L4.50 0L1.07 0L1.07-14.22L6.67-14.22Q9.20-14.22 10.63-13.10Q12.05-11.97 12.05-9.92L12.05-9.92Q12.05-8.44 11.45-7.46Q10.85-6.48 9.57-5.88L9.57-5.88L12.54-0.15L12.54 0L8.87 0ZM4.50-11.57L4.50-7.67L6.67-7.67Q7.65-7.67 8.14-8.18Q8.63-8.69 8.63-9.61Q8.63-10.53 8.13-11.05Q7.64-11.57 6.67-11.57L6.67-11.57L4.50-11.57ZM25.76-7.60L25.76-1.76Q24.97-0.88 23.45-0.34Q21.92 0.20 20.11 0.20L20.11 0.20Q17.31 0.20 15.64-1.51Q13.97-3.22 13.86-6.27L13.86-6.27L13.85-7.50Q13.85-9.60 14.59-11.17Q15.33-12.73 16.71-13.58Q18.10-14.42 19.91-14.42L19.91-14.42Q22.57-14.42 24.04-13.21Q25.51-11.99 25.75-9.58L25.75-9.58L22.45-9.58Q22.28-10.77 21.69-11.28Q21.10-11.79 20.03-11.79L20.03-11.79Q18.74-11.79 18.04-10.69Q17.33-9.60 17.32-7.57L17.32-7.57L17.32-6.71Q17.32-4.58 18.05-3.51Q18.78-2.44 20.34-2.44L20.34-2.44Q21.68-2.44 22.33-3.04L22.33-3.04L22.33-5.24L19.95-5.24L19.95-7.60L25.76-7.60ZM33.53 0L27.75 0L27.75-14.22L32.86-14.22Q35.61-14.22 37.04-13.21Q38.47-12.21 38.47-10.29L38.47-10.29Q38.47-9.19 37.96-8.41Q37.45-7.63 36.46-7.26L36.46-7.26Q37.58-6.96 38.17-6.16Q38.77-5.36 38.77-4.21L38.77-4.21Q38.77-2.12 37.45-1.07Q36.12-0.02 33.53 0L33.53 0ZM33.58-6.04L31.18-6.04L31.18-2.64L33.43-2.64Q34.36-2.64 34.85-3.06Q35.35-3.49 35.35-4.26L35.35-4.26Q35.35-6.04 33.58-6.04L33.58-6.04ZM31.18-11.57L31.18-8.29L32.97-8.29Q34.09-8.30 34.57-8.70Q35.05-9.10 35.05-9.88L35.05-9.88Q35.05-10.78 34.53-11.18Q34.01-11.57 32.86-11.57L32.86-11.57L31.18-11.57Z"></path></g></g></svg>